<svg version="1.0" xmlns="http://www.w3.org/2000/svg" width="48" height="48" viewBox="0 0 998.000000 998.000000" preserveAspectRatio="xMidYMid meet">
	<metadata>Created by potrace 1.11, written by Peter Selinger 2001-2013</metadata>
	<g transform="translate(0.000000,998.000000) scale(0.100000,-0.100000)" fill="#000000" stroke="none">
		<path d="M7844 6005 c-472 -1180 -861 -2145 -864 -2145 -3 0 -379 932 -834
			2070 l-828 2070 -2419 0 -2419 0 0 -500 0 -500 1000 0 1000 0 0 -2500 0 -2500
			500 0 500 0 0 2500 0 2500 582 -2 582 -3 1165 -2913 c641 -1601 1168 -2912
			1171 -2912 3 0 595 1473 1315 3273 720 1799 1314 3286 1322 3304 l13 31 -418
			167 c-229 92 -438 175 -464 186 l-46 18 -858 -2144z"
		/>
	</g>
</svg>
